<?xml version="1.0" encoding="UTF-8" standalone="no"?>
<svg xmlns="http://www.w3.org/2000/svg" 
     width="200" 
     height="100" 
     viewBox="0 0 364.731343 136.000000" 
     preserveAspectRatio="xMidYMid meet">
    <g transform="translate(-114.000000,273.000000) scale(0.100000,-0.100000)" fill="#000000" stroke="none">
        <path d="M1810 2720 c-144 -24 -317 -159 -384 -300 -48 -99 -70 -204 -62 -289 20 -208 135 -381 316 -473 49 -26 169 -58 213 -58 l37 0 0 53 0 53 -62 11 c-179 31 -300 131 -364 300 -23 60 -25 79 -22 168 4 92 7 106 42 178 66 132 185 221 334 247 l72 13 0 54 0 53 -37 -1 c-21 -1 -58 -5 -83 -9z"/>
        <path d="M1839 2492 c-102 -34 -168 -92 -219 -191 -18 -37 -22 -61 -22 -132 0 -108 26 -174 98 -244 62 -59 112 -85 180 -92 l54 -6 2 169 3 169 170 3 c93 2 171 4 172 5 8 8 -31 136 -53 173 -73 124 -249 191 -385 146z"/>
        <path d="M2665 2291 c-98 -47 -152 -124 -158 -226 l-2 -40 51 -3 51 -3 7 53 c9 65 38 110 91 140 33 18 59 23 143 26 l102 4 0 39 0 39 -112 0 c-104 0 -118 -2 -173 -29z"/>
        <path d="M3280 2039 l0 -280 48 3 47 3 3 278 2 277 -50 0 -50 0 0 -281z"/>
        <path d="M3730 2045 l0 -275 195 0 195 0 0 45 0 45 -145 0 -145 0 0 230 0 230 -50 0 -50 0 0 -275z"/>
        <path d="M4493 2298 c13 -56 140 -404 177 -485 19 -42 21 -43 69 -43 l48 0 -18 53 c-20 57 -89 249 -121 337 -11 30 -28 78 -38 105 l-17 50 -53 3 c-50 3 -52 2 -47 -20z"/>
        <path d="M4346 1993 c-43 -109 -81 -204 -83 -210 -4 -9 9 -13 44 -13 56 0 45 -14 108 140 15 36 36 86 47 111 l20 46 -21 48 c-12 26 -21 54 -21 61 0 40 -23 -5 -94 -183z"/>
        <path d="M1140 2116 c0 -253 194 -545 440 -663 102 -49 233 -83 318 -83 l32 0 0 54 0 54 -52 7 c-87 12 -173 34 -224 58 -139 64 -267 187 -330 316 -37 76 -73 207 -74 269 l0 32 -55 0 -55 0 0 -44z"/>
        <path d="M2845 2023 c-8 -44 -31 -92 -54 -114 -37 -35 -68 -44 -176 -49 l-110 -5 -3 -42 -3 -43 103 0 c137 0 218 26 271 85 37 42 65 102 72 153 l7 52 -50 0 c-50 0 -50 0 -57 -37z"/>
    </g>
</svg>