<?xml version="1.0" standalone="no"?>
<!DOCTYPE svg PUBLIC "-//W3C//DTD SVG 20010904//EN"
 "http://www.w3.org/TR/2001/REC-SVG-20010904/DTD/svg10.dtd">
<svg version="1.0" xmlns="http://www.w3.org/2000/svg"
 width="176.715739pt" height="211.148082pt" viewBox="0 0 176.715739 211.148082"
 preserveAspectRatio="xMidYMid meet">
<metadata>
Created by potrace 1.12, written by Peter Selinger 2001-2015
</metadata>
<g transform="translate(-215.784261,348.648082) scale(0.100000,-0.100000)"
stroke="none">
  <!-- Outer shape -->
  <path d="M3265 3480 c-173 -21 -363 -116 -493 -248 -136 -136 -217 -291 -247
  -472 -53 -315 66 -632 315 -837 127 -105 376 -200 505 -191 l50 3 3 78 c2 56
  -1 78 -10 81 -7 2 -56 12 -108 21 -267 46 -467 218 -559 480 -22 62 -25 87
  -25 215 -1 131 2 152 24 215 83 229 258 397 483 461 45 13 100 24 123 24 66 0
  75 13 72 100 l-3 75 -35 1 c-19 1 -62 -2 -95 -6z" fill="#000000"/>
  
  <!-- Inner half-circle (changed fill to white) -->
  <path d="M3294 3125 c-250 -46 -429 -264 -426 -519 2 -211 116 -385 309 -476
  64 -31 183 -56 210 -46 10 4 13 62 13 266 l0 260 263 2 262 3 -3 40 c-18 232
  -204 433 -437 471 -94 16 -98 16 -191 -1z" fill="#FFFFFF"/>
  
  <!-- Bottom section -->
  <path d="M2165 2508 c31 -471 359 -898 815 -1062 100 -36 252 -66 342 -69 l73
  -2 0 85 0 84 -105 13 c-133 16 -242 46 -349 96 -115 54 -190 107 -292 207
  -182 180 -288 408 -315 683 l-6 67 -85 0 -85 0 7 -102z" fill="#000000"/>
</g>
</svg>
